<svg xmlns="http://www.w3.org/2000/svg" width="256" height="256" viewBox="0 0 256 256">
  <title>Download cloud icon</title>
  <desc>A compact cloud silhouette with a large downward arrow inside</desc>
  <path d="M196 140c0-22-18-40-40-40-6 0-12 2-17 5-5-16-20-27-37-27-22 0-40 18-40 40 0 4 1 8 2 12-10 4-16 13-16 23 0 14 11 25 25 25h126c14 0 25-11 25-25 0-10-6-19-16-23 1-4 2-8 2-12z" fill="#4A90D9"/>
  <polygon points="128,100 128,170 104,146 96,154 128,186 160,154 152,146 128,170 128,100" fill="#FFFFFF"/>
</svg>
