<svg xmlns="http://www.w3.org/2000/svg" width="1280" height="720" viewBox="0 0 1280 720">
  <rect x="0" y="0" width="1280" height="720" fill="#F8FAFC"/>
  <text x="56" y="72" font-family="Microsoft YaHei, PingFang SC, Arial, sans-serif" font-size="36" font-weight="800" fill="#111827">总体架构：RAG 记忆 + 多 Agent 生成/验证/修复</text>
  <rect x="56" y="96" width="1168" height="52" rx="8" fill="#DBEAFE"/>
  <text x="78" y="129" font-family="Microsoft YaHei, PingFang SC, Arial, sans-serif" font-size="18" fill="#111827">本地历史运行先作为 RAG 上下文进入 Goal Manager，随后 Agent 链路逐步收窄目标、生成候选、验证并修复 SVG。</text>

  <g id="legend">
    <rect x="930" y="164" width="264" height="42" rx="8" fill="#FFFFFF" stroke="#CBD5E1" stroke-width="1"/>
    <rect x="948" y="178" width="18" height="14" rx="3" fill="#DBEAFE"/><text x="974" y="190" font-family="Microsoft YaHei, PingFang SC, Arial, sans-serif" font-size="13" fill="#64748B">LLM Agent</text>
    <rect x="1048" y="178" width="18" height="14" rx="3" fill="#CCFBF1"/><text x="1074" y="190" font-family="Microsoft YaHei, PingFang SC, Arial, sans-serif" font-size="13" fill="#64748B">Tool</text>
  </g>

  <g id="rag-column">
    <rect x="66" y="186" width="226" height="354" rx="12" fill="#FFFFFF" stroke="#CBD5E1" stroke-width="1.2"/>
    <text x="96" y="226" font-family="Microsoft YaHei, PingFang SC, Arial, sans-serif" font-size="22" font-weight="800" fill="#0F766E">RAG 输入</text>
    <rect x="96" y="258" width="166" height="78" rx="10" fill="#CCFBF1"/>
    <use data-icon="tabler-outline/database" x="112" y="278" width="34" height="34" fill="#0F766E" stroke-width="2"/>
    <text x="156" y="288" font-family="Microsoft YaHei, PingFang SC, Arial, sans-serif" font-size="16" font-weight="700" fill="#111827">Memory</text>
    <text x="156" y="314" font-family="Microsoft YaHei, PingFang SC, Arial, sans-serif" font-size="14" fill="#64748B">历史运行记录</text>
    <rect x="96" y="370" width="166" height="78" rx="10" fill="#CCFBF1"/>
    <use data-icon="tabler-outline/search" x="112" y="390" width="34" height="34" fill="#0F766E" stroke-width="2"/>
    <text x="156" y="400" font-family="Microsoft YaHei, PingFang SC, Arial, sans-serif" font-size="16" font-weight="700" fill="#111827">Top-k Retrieve</text>
    <text x="156" y="426" font-family="Microsoft YaHei, PingFang SC, Arial, sans-serif" font-size="14" fill="#64748B">BM25 相似经验</text>
  </g>

  <g id="main-chain">
    <rect x="342" y="186" width="134" height="70" rx="10" fill="#DBEAFE" stroke="#1D4ED8" stroke-width="1.3"/>
    <use data-icon="tabler-outline/target" x="362" y="204" width="28" height="28" fill="#1D4ED8" stroke-width="2"/>
    <text x="402" y="214" font-family="Microsoft YaHei, PingFang SC, Arial, sans-serif" font-size="15" font-weight="800" fill="#111827">Goal</text>
    <text x="402" y="238" font-family="Microsoft YaHei, PingFang SC, Arial, sans-serif" font-size="13" fill="#64748B">验收标准</text>
    <line x1="292" y1="409" x2="342" y2="221" stroke="#0F766E" stroke-width="2"/>
    <polygon points="342,221 330,218 336,231" fill="#0F766E"/>

    <line x1="476" y1="221" x2="526" y2="221" stroke="#1D4ED8" stroke-width="2.2"/>
    <polygon points="526,221 514,214 514,228" fill="#1D4ED8"/>
    <rect x="526" y="186" width="134" height="70" rx="10" fill="#DBEAFE" stroke="#1D4ED8" stroke-width="1.3"/>
    <use data-icon="tabler-outline/wand" x="546" y="204" width="28" height="28" fill="#1D4ED8" stroke-width="2"/>
    <text x="586" y="214" font-family="Microsoft YaHei, PingFang SC, Arial, sans-serif" font-size="15" font-weight="800" fill="#111827">Rewrite</text>
    <text x="586" y="238" font-family="Microsoft YaHei, PingFang SC, Arial, sans-serif" font-size="13" fill="#64748B">提示优化</text>

    <line x1="660" y1="221" x2="710" y2="221" stroke="#1D4ED8" stroke-width="2.2"/>
    <polygon points="710,221 698,214 698,228" fill="#1D4ED8"/>
    <rect x="710" y="186" width="134" height="70" rx="10" fill="#DBEAFE" stroke="#1D4ED8" stroke-width="1.3"/>
    <use data-icon="tabler-outline/route" x="730" y="204" width="28" height="28" fill="#1D4ED8" stroke-width="2"/>
    <text x="770" y="214" font-family="Microsoft YaHei, PingFang SC, Arial, sans-serif" font-size="15" font-weight="800" fill="#111827">Planner</text>
    <text x="770" y="238" font-family="Microsoft YaHei, PingFang SC, Arial, sans-serif" font-size="13" fill="#64748B">结构计划</text>

    <line x1="844" y1="221" x2="894" y2="221" stroke="#1D4ED8" stroke-width="2.2"/>
    <polygon points="894,221 882,214 882,228" fill="#1D4ED8"/>
    <rect x="894" y="186" width="134" height="70" rx="10" fill="#DBEAFE" stroke="#1D4ED8" stroke-width="1.3"/>
    <use data-icon="tabler-outline/layout" x="914" y="204" width="28" height="28" fill="#1D4ED8" stroke-width="2"/>
    <text x="954" y="214" font-family="Microsoft YaHei, PingFang SC, Arial, sans-serif" font-size="15" font-weight="800" fill="#111827">Generator</text>
    <text x="954" y="238" font-family="Microsoft YaHei, PingFang SC, Arial, sans-serif" font-size="13" fill="#64748B">3 个候选</text>
  </g>

  <g id="critique-selection">
    <line x1="961" y1="256" x2="896" y2="326" stroke="#1D4ED8" stroke-width="2"/>
    <polygon points="896,326 899,313 909,323" fill="#1D4ED8"/>
    <line x1="961" y1="256" x2="1032" y2="326" stroke="#1D4ED8" stroke-width="2"/>
    <polygon points="1032,326 1019,323 1029,313" fill="#1D4ED8"/>
    <rect x="806" y="326" width="160" height="66" rx="10" fill="#DBEAFE" stroke="#1D4ED8" stroke-width="1.2"/>
    <text x="836" y="354" font-family="Microsoft YaHei, PingFang SC, Arial, sans-serif" font-size="15" font-weight="800" fill="#111827">Semantic Critic</text>
    <text x="836" y="376" font-family="Microsoft YaHei, PingFang SC, Arial, sans-serif" font-size="13" fill="#64748B">语义与可读性</text>
    <rect x="1002" y="326" width="160" height="66" rx="10" fill="#DBEAFE" stroke="#1D4ED8" stroke-width="1.2"/>
    <text x="1030" y="354" font-family="Microsoft YaHei, PingFang SC, Arial, sans-serif" font-size="15" font-weight="800" fill="#111827">Quality Critic</text>
    <text x="1030" y="376" font-family="Microsoft YaHei, PingFang SC, Arial, sans-serif" font-size="13" fill="#64748B">安全与渲染</text>
    <line x1="886" y1="392" x2="953" y2="432" stroke="#F59E0B" stroke-width="2"/>
    <line x1="1082" y1="392" x2="1018" y2="432" stroke="#F59E0B" stroke-width="2"/>
    <rect x="920" y="432" width="134" height="66" rx="10" fill="#FEF3C7" stroke="#F59E0B" stroke-width="1.2"/>
    <use data-icon="tabler-outline/check" x="940" y="449" width="28" height="28" fill="#F59E0B" stroke-width="2"/>
    <text x="978" y="459" font-family="Microsoft YaHei, PingFang SC, Arial, sans-serif" font-size="15" font-weight="800" fill="#111827">Selector</text>
    <text x="978" y="481" font-family="Microsoft YaHei, PingFang SC, Arial, sans-serif" font-size="13" fill="#64748B">可解释选择</text>
  </g>

  <g id="validation-loop">
    <line x1="1054" y1="465" x2="1110" y2="465" stroke="#F59E0B" stroke-width="2.2"/>
    <polygon points="1110,465 1098,458 1098,472" fill="#F59E0B"/>
    <rect x="1110" y="432" width="104" height="66" rx="10" fill="#FEF3C7" stroke="#F59E0B" stroke-width="1.2"/>
    <use data-icon="tabler-outline/tools" x="1132" y="448" width="26" height="26" fill="#F59E0B" stroke-width="2"/>
    <text x="1166" y="459" font-family="Microsoft YaHei, PingFang SC, Arial, sans-serif" font-size="15" font-weight="800" fill="#111827">Optimize</text>
    <text x="1166" y="481" font-family="Microsoft YaHei, PingFang SC, Arial, sans-serif" font-size="13" fill="#64748B">改写 SVG</text>

    <rect x="676" y="520" width="150" height="66" rx="10" fill="#DBEAFE" stroke="#1D4ED8" stroke-width="1.2"/>
    <use data-icon="tabler-outline/shield" x="696" y="536" width="28" height="28" fill="#1D4ED8" stroke-width="2"/>
    <text x="736" y="547" font-family="Microsoft YaHei, PingFang SC, Arial, sans-serif" font-size="15" font-weight="800" fill="#111827">Validator</text>
    <text x="736" y="569" font-family="Microsoft YaHei, PingFang SC, Arial, sans-serif" font-size="13" fill="#64748B">score + issues</text>
    <line x1="1162" y1="498" x2="826" y2="553" stroke="#1D4ED8" stroke-width="2"/>
    <polygon points="826,553 838,544 840,558" fill="#1D4ED8"/>

    <rect x="872" y="520" width="150" height="66" rx="10" fill="#FEE2E2" stroke="#DC2626" stroke-width="1.2"/>
    <use data-icon="tabler-outline/alert-triangle" x="892" y="536" width="28" height="28" fill="#DC2626" stroke-width="2"/>
    <text x="932" y="547" font-family="Microsoft YaHei, PingFang SC, Arial, sans-serif" font-size="15" font-weight="800" fill="#111827">Taxonomy</text>
    <text x="932" y="569" font-family="Microsoft YaHei, PingFang SC, Arial, sans-serif" font-size="13" fill="#64748B">失败归因</text>
    <line x1="826" y1="553" x2="872" y2="553" stroke="#DC2626" stroke-width="2"/>
    <polygon points="872,553 860,546 860,560" fill="#DC2626"/>

    <rect x="1066" y="520" width="150" height="66" rx="10" fill="#FEE2E2" stroke="#DC2626" stroke-width="1.2"/>
    <use data-icon="tabler-outline/route" x="1086" y="536" width="28" height="28" fill="#DC2626" stroke-width="2"/>
    <text x="1126" y="547" font-family="Microsoft YaHei, PingFang SC, Arial, sans-serif" font-size="15" font-weight="800" fill="#111827">Router</text>
    <text x="1126" y="569" font-family="Microsoft YaHei, PingFang SC, Arial, sans-serif" font-size="13" fill="#64748B">修复路线</text>
    <line x1="1022" y1="553" x2="1066" y2="553" stroke="#DC2626" stroke-width="2"/>
    <polygon points="1066,553 1054,546 1054,560" fill="#DC2626"/>
    <path d="M1141 520 L1141 610 L751 610 L751 586" fill="none" stroke="#DC2626" stroke-width="2"/>
    <polygon points="751,586 744,598 758,598" fill="#DC2626"/>
  </g>

  <g id="output">
    <rect x="76" y="580" width="236" height="54" rx="10" fill="#FFFFFF" stroke="#CBD5E1" stroke-width="1.2"/>
    <use data-icon="tabler-outline/file-export" x="98" y="594" width="26" height="26" fill="#0F766E" stroke-width="2"/>
    <text x="136" y="614" font-family="Microsoft YaHei, PingFang SC, Arial, sans-serif" font-size="16" font-weight="800" fill="#111827">Exporter + Memory Curator</text>
  </g>

  <text x="56" y="674" font-family="Microsoft YaHei, PingFang SC, Arial, sans-serif" font-size="12" fill="#94A3B8">Source: README Agent workflow, svg_icon_agent/pipeline.py, svg_icon_agent/refiner.py</text>
  <text x="1224" y="674" text-anchor="end" font-family="Microsoft YaHei, PingFang SC, Arial, sans-serif" font-size="12" fill="#94A3B8">04</text>
</svg>
